<?xml version="1.0" encoding="UTF-8" standalone="no"?>
<svg
   version="1.0"
   width="512.000000pt"
   height="512.000000pt"
   viewBox="0 0 512.000000 512.000000"
   preserveAspectRatio="xMidYMid meet"
   id="svg35"
   sodipodi:docname="aptima.svg"
   inkscape:version="1.4 (e7c3feb100, 2024-10-09)"
   xmlns:inkscape="http://www.inkscape.org/namespaces/inkscape"
   xmlns:sodipodi="http://sodipodi.sourceforge.net/DTD/sodipodi-0.dtd"
   xmlns="http://www.w3.org/2000/svg"
   xmlns:svg="http://www.w3.org/2000/svg">
  <defs
     id="defs35" />
  <sodipodi:namedview
     id="namedview35"
     pagecolor="#505050"
     bordercolor="#ffffff"
     borderopacity="1"
     inkscape:showpageshadow="0"
     inkscape:pageopacity="0"
     inkscape:pagecheckerboard="1"
     inkscape:deskcolor="#d1d1d1"
     inkscape:document-units="pt"
     inkscape:zoom="1.0736355"
     inkscape:cx="394.45416"
     inkscape:cy="285.47863"
     inkscape:window-width="1920"
     inkscape:window-height="1056"
     inkscape:window-x="0"
     inkscape:window-y="0"
     inkscape:window-maximized="1"
     inkscape:current-layer="svg35" />
  <metadata
     id="metadata1">
Created by potrace 1.16, written by Peter Selinger 2001-2019
</metadata>
  <path
     id="circle37"
     style="fill:#5175b0;fill-opacity:0.53996396;stroke-width:3.11811;stroke-linecap:round;stroke-linejoin:round"
     d="M 250.17773 135.46289 C 250.17773 135.46289 231.50305 155.91537 230.31738 157.39746 C 229.1317 158.87955 225.27817 171.03359 222.01758 171.92285 C 218.75697 172.8121 210.75293 196.82227 210.75293 196.82227 L 203.93555 205.41797 L 195.04395 208.38135 L 190.00342 218.16357 L 167.17969 240.98877 L 165.99463 240.39551 L 147.9126 222.61084 L 118.27148 254.32764 L 105.22852 268.55566 L 97.521973 270.03662 L 87.739746 277.74463 L 87.146484 282.19043 L 76.476563 282.19043 L 41.537109 311.51367 A 221.92719 221.92719 0 0 0 256.00049 477.92725 A 221.92719 221.92719 0 0 0 470.94873 309.28125 C 460.4911 300.53356 450.12891 289.72998 450.12891 289.72998 L 421.04736 258.94482 C 421.04736 258.94482 397.68974 276.92704 393.32959 278.31006 C 385.47019 280.80301 374.37593 263.21933 370.22607 262.33008 C 366.07622 261.44082 353.62646 236.24561 353.62646 236.24561 L 350.95898 233.28076 L 342.65918 244.54541 L 318.05713 205.71387 L 295.8252 203.63965 L 282.78369 167.77295 L 270.92578 157.39746 L 250.17773 135.46289 z " />
  <path
     id="path36"
     style="fill:#c23589;fill-opacity:0.56876457;stroke-width:3.11811;stroke-linecap:round;stroke-linejoin:round"
     d="M 256.00049 34.072266 A 221.92719 221.92719 0 0 0 34.072266 256.00049 A 221.92719 221.92719 0 0 0 41.537109 311.51367 L 76.476563 282.19043 L 87.146484 282.19043 L 87.739746 277.74463 L 97.521973 270.03662 L 105.22852 268.55566 L 118.27148 254.32764 L 147.9126 222.61084 L 165.99463 240.39551 L 167.17969 240.98877 L 190.00342 218.16357 L 195.04395 208.38135 L 203.93555 205.41797 L 210.75293 196.82227 C 210.75293 196.82227 218.75697 172.8121 222.01758 171.92285 C 225.27817 171.03359 229.1317 158.87955 230.31738 157.39746 C 231.50305 155.91537 250.17773 135.46289 250.17773 135.46289 L 270.92578 157.39746 L 282.78369 167.77295 L 295.8252 203.63965 L 318.05713 205.71387 L 342.65918 244.54541 L 350.95898 233.28076 L 353.62646 236.24561 C 353.62646 236.24561 366.07622 261.44082 370.22607 262.33008 C 374.37593 263.21933 385.47019 280.80301 393.32959 278.31006 C 397.68974 276.92704 421.04736 258.94482 421.04736 258.94482 L 450.12891 289.72998 C 450.12891 289.72998 460.4911 300.53356 470.94873 309.28125 A 221.92719 221.92719 0 0 0 477.92725 256.00049 A 221.92719 221.92719 0 0 0 256.00049 34.072266 z " />
  <g
     transform="translate(0.000000,512.000000) scale(0.100000,-0.100000)"
     fill="#000000"
     stroke="none"
     id="g35"
     style="fill:#ffffff">
    <path
       d="M817 3905 c-36 -19 -64 -53 -72 -87 l-6 -28 -172 -3 c-95 -1 22 -3 258 -3 237 0 380 2 318 5 -61 3 -113 8 -115 11 -3 3 -15 22 -28 44 -42 69 -118 95 -183 61z m130 -21 c23 -14 63 -70 63 -86 0 -5 -58 -8 -130 -8 l-130 0 11 27 c31 82 117 113 186 67z"
       id="path1"
       style="fill:#ffffff" />
    <path
       d="M3665 3851 c-51 -13 -92 -39 -127 -81 -21 -24 -44 -40 -57 -40 -27 0 -81 -27 -81 -40 0 -6 -30 -11 -67 -12 l-68 -2 64 -3 c55 -4 67 -1 88 19 16 15 36 22 63 23 22 0 40 3 40 7 0 5 16 26 36 47 71 79 193 94 278 34 33 -23 47 -28 60 -21 24 13 78 2 110 -23 14 -11 38 -40 52 -65 l26 -44 191 2 192 2 -190 6 c-104 3 -191 7 -192 8 0 1 -13 23 -28 48 -35 60 -77 86 -135 82 -34 -2 -56 4 -91 25 -49 29 -116 41 -164 28z"
       id="path2"
       style="fill:#ffffff" />
    <path
       d="M2443 3719 c-38 -46 -90 -102 -114 -123 -35 -31 -48 -53 -64 -105 -17 -55 -26 -69 -52 -81 -28 -13 -37 -30 -78 -142 -26 -70 -56 -139 -67 -153 -24 -31 -68 -55 -101 -55 -20 0 -29 -10 -50 -57 -19 -45 -49 -82 -135 -166 l-110 -108 -86 85 c-47 47 -92 86 -99 86 -7 0 -20 -6 -29 -12 -28 -23 -300 -321 -349 -384 -46 -58 -52 -62 -109 -73 -54 -11 -64 -17 -105 -64 -40 -47 -49 -53 -78 -49 -28 3 -53 -13 -219 -148 -103 -82 -218 -178 -255 -213 -38 -34 -95 -84 -128 -111 -33 -27 -64 -53 -69 -57 -9 -8 95 14 154 33 68 21 249 118 315 168 37 28 119 98 181 156 106 97 145 127 113 87 -55 -70 -326 -344 -429 -433 -69 -59 -141 -125 -160 -146 -34 -36 -34 -37 -5 -16 17 11 66 51 111 89 254 214 319 267 415 340 59 45 128 93 154 108 53 32 125 58 133 50 3 -3 -14 -26 -39 -52 -34 -35 -37 -41 -14 -25 43 29 110 102 200 215 l77 97 48 0 c44 0 51 4 91 48 24 26 61 70 81 98 21 28 57 64 80 79 24 16 66 51 93 79 28 28 79 78 115 111 45 42 70 73 80 104 14 39 22 46 67 63 75 27 103 66 153 207 38 108 47 124 71 133 27 9 37 28 66 119 4 14 45 66 90 114 79 85 82 87 88 62 6 -23 -3 -64 -30 -130 -6 -13 -3 -16 9 -11 22 8 21 -3 -13 -128 -16 -60 -28 -108 -26 -108 2 0 31 38 64 83 l60 84 -15 54 c-15 56 -31 219 -22 219 3 0 25 -57 48 -127 24 -71 58 -165 76 -210 19 -45 34 -90 34 -100 0 -10 -29 -60 -64 -111 l-64 -93 22 -39 21 -39 -20 -38 c-11 -21 -103 -121 -205 -223 -208 -209 -294 -314 -305 -375 -5 -29 -28 -66 -87 -139 -95 -116 -71 -112 49 9 77 79 82 85 76 118 -4 30 1 43 35 88 22 30 49 73 61 96 20 39 137 150 148 139 13 -13 -17 -57 -99 -145 -86 -92 -116 -131 -102 -131 19 0 214 206 264 280 32 47 83 109 114 139 65 64 71 59 62 -46 -3 -37 -4 -81 -4 -98 4 -80 0 -93 -39 -151 -23 -33 -68 -104 -102 -159 -63 -102 -72 -109 -46 -35 30 86 13 71 -62 -56 -105 -176 -134 -210 -74 -89 46 94 75 174 67 183 -4 3 -63 -78 -180 -246 -32 -45 -119 -143 -194 -217 l-137 -136 90 52 c301 173 509 345 566 467 17 37 38 81 46 98 8 18 35 51 59 75 43 42 44 42 44 18 0 -15 -11 -41 -25 -60 -30 -42 -52 -86 -59 -120 -3 -15 -22 -51 -42 -80 -34 -51 -34 -53 -7 -29 82 71 99 91 140 155 25 39 46 71 48 73 1 1 28 -7 60 -18 76 -26 82 -26 150 10 57 30 90 36 111 22 6 -4 122 -115 258 -247 136 -132 252 -242 258 -244 7 -2 -4 18 -24 45 -39 53 -182 344 -173 352 3 3 5 1 5 -4 0 -15 166 -262 215 -319 23 -27 76 -95 118 -150 41 -55 97 -120 123 -145 51 -49 51 -48 -1 29 -21 32 -49 99 -71 169 -34 108 -41 122 -93 178 -77 83 -251 372 -366 605 -151 308 -154 342 -6 66 132 -245 519 -830 572 -862 6 -4 -22 37 -63 91 -41 56 -111 171 -159 264 -47 91 -132 255 -189 365 -56 110 -116 223 -132 250 -28 49 -28 49 -3 20 58 -66 76 -95 143 -225 38 -74 102 -198 142 -274 40 -76 81 -164 90 -194 14 -43 45 -89 153 -221 74 -92 178 -210 231 -262 110 -111 346 -312 494 -422 99 -72 106 -76 170 -82 37 -3 80 -8 97 -11 35 -5 36 -6 -71 82 -216 180 -569 508 -779 725 -180 185 -211 225 -66 84 182 -177 255 -245 275 -256 36 -21 -14 49 -109 151 -67 73 -110 132 -171 236 -45 76 -92 157 -105 178 -13 22 -19 37 -13 34 11 -7 46 -58 159 -232 43 -66 114 -160 157 -209 44 -50 94 -115 111 -146 84 -148 495 -485 642 -526 56 -15 213 -28 199 -16 -5 4 -49 38 -99 76 -49 38 -154 125 -232 193 -140 123 -200 195 -328 390 -15 23 -31 42 -36 42 -4 0 -20 5 -34 10 -23 9 -25 13 -15 25 10 12 16 13 28 3 13 -11 14 -10 3 10 -17 33 13 129 35 111 23 -19 26 -4 10 37 l-16 39 38 -45 c110 -133 537 -562 462 -465 -30 38 -228 256 -372 409 -81 86 -159 173 -173 194 -21 31 -50 131 -41 140 2 1 23 -28 49 -65 63 -94 180 -224 220 -245 19 -9 77 -62 130 -117 52 -56 97 -101 100 -101 3 0 3 10 -1 22 -6 23 0 22 53 -18 17 -12 57 -38 90 -58 l60 -37 -80 73 c-44 40 -125 119 -180 175 -67 69 -115 109 -145 122 -27 12 -60 38 -80 63 -91 114 -214 247 -224 241 -6 -3 -47 -36 -91 -73 -137 -115 -164 -131 -189 -117 -11 6 -41 19 -65 27 -37 13 -50 24 -80 75 -31 51 -41 61 -71 65 -31 4 -40 14 -83 85 -26 44 -61 106 -78 138 -16 31 -34 57 -40 57 -6 0 -24 -9 -40 -21 -46 -32 -104 -6 -134 61 -10 22 -21 38 -25 35 -4 -2 -28 40 -54 93 l-47 98 -47 2 c-132 6 -164 34 -232 207 -14 33 -41 78 -62 101 -20 22 -53 76 -71 120 -34 78 -34 79 -69 76 -36 -3 -43 4 -204 196 l-21 25 -70 -84z m312 -469 c14 -41 39 -95 56 -120 35 -52 108 -195 84 -165 -65 81 -210 381 -239 496 -11 45 73 -135 99 -211z m56 90 c13 -41 50 -127 82 -190 33 -63 76 -160 96 -215 23 -62 61 -136 99 -195 35 -52 67 -112 73 -134 17 -62 3 -52 -22 16 -19 48 -40 79 -96 137 -61 63 -76 86 -94 140 -12 37 -36 99 -55 139 -42 92 -94 262 -118 387 -8 45 8 5 35 -85z m334 -290 c-3 -5 -17 -10 -31 -10 -13 0 -24 5 -24 10 0 6 14 10 31 10 17 0 28 -4 24 -10z m-396 -185 c55 -72 71 -98 47 -75 -73 68 -186 209 -186 232 0 26 -5 32 139 -157z m211 -64 c17 -59 32 -83 80 -136 32 -36 85 -111 119 -167 33 -57 72 -122 86 -145 52 -85 17 -41 -48 60 -36 57 -93 137 -127 178 -33 40 -79 112 -101 159 -22 47 -44 92 -48 100 -4 8 -17 33 -30 55 l-23 40 35 -37 c25 -25 42 -57 57 -107z m-275 -16 c49 -56 179 -214 249 -304 9 -12 7 -12 -15 0 -14 8 -59 52 -100 97 -43 49 -102 102 -141 128 -53 34 -68 49 -68 67 0 13 -3 46 -6 73 -4 42 -3 46 7 29 7 -11 40 -51 74 -90z m-1130 23 c73 -74 63 -74 -24 0 -54 47 -56 46 -42 -8 14 -52 23 -200 13 -200 -5 0 -14 26 -21 57 -16 83 -14 223 3 223 1 0 33 -32 71 -72z m-138 -74 c-7 -43 -16 -72 -20 -64 -5 13 -8 12 -21 -5 -142 -182 -206 -248 -315 -321 l-94 -63 -36 15 c-19 8 -37 17 -40 19 -2 3 11 21 30 41 24 25 52 40 93 52 52 14 64 23 108 77 59 70 302 334 306 330 1 -1 -4 -38 -11 -81z m2111 -9 c0 -16 -2 -15 -8 5 -11 34 -11 60 0 35 5 -11 8 -29 8 -40z m-564 -110 c53 -74 147 -248 119 -220 -22 22 -203 310 -203 322 0 10 26 -22 84 -102z m697 -131 c33 -69 58 -129 55 -132 -3 -2 -37 61 -76 141 -39 81 -75 149 -80 152 -6 4 -10 11 -10 16 0 28 57 -63 111 -177z m-2277 129 c-9 -21 -18 -44 -21 -50 -6 -16 -23 -17 -23 -2 0 6 -21 -11 -46 -38 -26 -26 -40 -39 -32 -28 22 31 129 155 134 155 2 0 -3 -17 -12 -37z m1391 -92 l40 -33 -41 22 c-49 27 -144 112 -144 130 0 7 24 -9 53 -36 28 -27 70 -64 92 -83z m1428 -33 c-19 -96 -26 -107 -85 -157 -65 -55 -66 -69 -1 -22 l41 30 21 -23 c27 -28 26 -50 0 -93 -12 -19 -19 -36 -16 -39 3 -3 34 9 68 27 l64 31 -25 -27 c-14 -16 -19 -25 -12 -21 6 4 12 3 12 -2 0 -10 -30 -114 -36 -124 -8 -12 -218 173 -247 217 l-27 40 22 15 c12 8 67 50 122 93 55 42 101 77 102 77 1 0 0 -10 -3 -22z m-3448 -228 c-11 -18 -241 -206 -325 -266 -152 -107 -149 -98 5 19 55 42 150 116 210 166 112 92 121 98 110 81z m155 -83 c0 -1 -26 -27 -57 -57 l-58 -55 55 58 c50 53 60 62 60 54z"
       id="path3"
       style="fill:#ffffff" />
    <path
       d="M447 3753 c84 -2 222 -2 306 0 83 1 15 3 -153 3 -168 0 -236 -2 -153 -3z"
       id="path4"
       style="fill:#ffffff" />
    <path
       d="M1460 3719 c-36 -15 -60 -39 -60 -61 0 -17 -12 -18 -177 -19 -98 -1 -207 -5 -243 -9 -36 -4 108 -7 325 -7 215 0 377 2 361 4 -18 3 -44 21 -70 49 -44 49 -89 63 -136 43z m124 -46 l37 -38 -83 -3 c-46 -2 -93 0 -105 3 -56 14 3 75 72 75 36 0 48 -6 79 -37z"
       id="path5"
       style="fill:#ffffff" />
    <path
       d="M3150 3590 c95 -8 887 -13 879 -6 -2 2 -222 6 -489 9 -267 2 -442 1 -390 -3z"
       id="path6"
       style="fill:#ffffff" />
    <path
       d="M2364 3365 c-34 -79 -71 -202 -89 -292 -9 -45 -24 -106 -35 -135 -19 -54 -17 -79 3 -43 6 11 31 42 56 70 25 27 56 62 69 76 23 26 102 218 102 247 0 8 -20 -3 -49 -27 -36 -31 -50 -49 -54 -76 -6 -36 -67 -178 -74 -172 -5 6 66 207 83 232 11 16 14 44 12 96 l-3 74 -21 -50z"
       id="path7"
       style="fill:#ffffff" />
    <path
       d="M3845 3395 c-16 -9 -37 -24 -47 -35 -13 -16 -29 -20 -82 -20 -35 0 -67 -3 -69 -7 -3 -5 36 -7 86 -5 50 2 85 7 78 11 -14 9 -4 20 46 45 62 31 155 12 188 -38 l17 -26 222 2 221 3 -217 2 -218 3 -16 26 c-10 14 -30 32 -45 40 -37 18 -126 18 -164 -1z"
       id="path8"
       style="fill:#ffffff" />
    <path
       d="M3403 3293 c86 -2 228 -2 315 0 86 1 15 3 -158 3 -173 0 -244 -2 -157 -3z"
       id="path9"
       style="fill:#ffffff" />
    <path
       d="M1315 3240 c17 -4 170 -8 340 -8 189 0 294 4 270 9 -50 10 -651 9 -610 -1z"
       id="path10"
       style="fill:#ffffff" />
    <path
       d="M910 3142 c-25 -15 -51 -41 -59 -55 l-14 -27 -216 0 c-122 0 -223 -5 -231 -10 -10 -6 62 -10 213 -10 l229 0 44 49 c51 56 97 76 156 67 54 -9 85 -26 162 -91 l65 -55 111 0 c72 0 109 4 105 10 -4 6 -53 10 -114 10 l-108 0 -39 36 c-83 77 -124 98 -194 102 -58 3 -70 0 -110 -26z"
       id="path11"
       style="fill:#ffffff" />
    <path
       d="M2240 3134 c0 -7 -96 -129 -137 -174 -3 -3 5 19 16 48 12 29 21 65 21 80 l0 27 -21 -25 c-39 -48 -79 -125 -73 -142 6 -21 -39 -155 -78 -228 -34 -64 -32 -57 15 65 19 50 38 106 42 125 l6 35 -22 -35 c-39 -61 -97 -193 -114 -259 -17 -66 -41 -120 -69 -156 -12 -16 -11 -7 4 39 22 64 28 210 10 221 -6 4 -10 -7 -10 -25 0 -34 -15 -77 -92 -265 -53 -128 -81 -177 -155 -264 l-38 -45 48 33 c27 18 50 31 52 29 4 -4 -71 -112 -125 -179 l-35 -44 56 47 c134 114 356 409 489 652 30 54 76 123 102 152 38 43 52 71 73 141 14 49 30 101 36 117 5 16 7 32 4 34 -3 3 -5 1 -5 -4z m-396 -706 c-19 -31 -76 -108 -81 -108 -2 0 15 27 38 60 23 33 44 60 46 60 2 0 1 -6 -3 -12z"
       id="path12"
       style="fill:#ffffff" />
    <path
       d="M4350 3060 c0 -9 245 -17 320 -10 153 13 134 17 -82 19 -153 1 -238 -3 -238 -9z"
       id="path13"
       style="fill:#ffffff" />
    <path
       d="M4544 3015 c-18 -14 -17 -15 11 -8 17 5 56 7 88 5 37 -1 56 2 52 8 -10 16 -128 12 -151 -5z"
       id="path14"
       style="fill:#ffffff" />
    <path
       d="M4225 2994 c-16 -8 -37 -22 -45 -30 -8 -9 7 -4 34 10 58 31 99 33 149 7 20 -10 37 -15 37 -9 0 15 -66 38 -107 38 -21 0 -51 -7 -68 -16z"
       id="path15"
       style="fill:#ffffff" />
    <path
       d="M1158 2983 c94 -2 250 -2 345 0 94 1 17 3 -173 3 -190 0 -267 -2 -172 -3z"
       id="path16"
       style="fill:#ffffff" />
    <path
       d="M3971 2953 c-19 -10 -37 -24 -39 -32 -3 -10 5 -7 23 7 33 26 91 29 123 6 13 -9 26 -14 29 -11 8 8 -40 36 -73 42 -18 4 -42 -1 -63 -12z"
       id="path17"
       style="fill:#ffffff" />
    <path
       d="M345 2950 c90 -10 469 -10 605 0 66 4 -38 7 -285 7 -216 0 -359 -3 -320 -7z"
       id="path18"
       style="fill:#ffffff" />
    <path
       d="M3665 2925 c24 -8 194 -12 189 -4 -3 5 -49 9 -102 8 -53 0 -92 -2 -87 -4z"
       id="path19"
       style="fill:#ffffff" />
    <path
       d="M3538 2903 c23 -2 61 -2 85 0 23 2 4 4 -43 4 -47 0 -66 -2 -42 -4z"
       id="path20"
       style="fill:#ffffff" />
    <path
       d="M3900 2870 c82 -10 534 -10 785 -1 136 5 42 7 -330 8 -286 0 -491 -3 -455 -7z"
       id="path21"
       style="fill:#ffffff" />
    <path
       d="M2239 2824 c-80 -83 -181 -224 -224 -314 -25 -52 -57 -117 -70 -145 l-25 -50 32 40 c18 22 63 72 100 112 38 40 68 78 68 85 0 8 20 34 45 58 34 33 50 60 62 100 9 30 24 75 35 99 10 24 17 45 15 47 -2 2 -19 -12 -38 -32z"
       id="path22"
       style="fill:#ffffff" />
    <path
       d="M3658 2833 c39 -2 105 -2 145 0 39 1 7 3 -73 3 -80 0 -112 -2 -72 -3z"
       id="path23"
       style="fill:#ffffff" />
    <path
       d="M640 2502 c-30 -31 -33 -31 -143 -35 -86 -2 -77 -3 43 -3 85 -1 140 1 122 3 -33 4 -33 5 -16 24 26 28 84 26 114 -6 22 -23 29 -25 109 -23 l86 2 -80 3 c-69 3 -83 7 -106 29 -14 14 -42 27 -62 31 -31 5 -40 1 -67 -25z"
       id="path24"
       style="fill:#ffffff" />
    <path
       d="M1602 2457 c-33 -39 -77 -100 -99 -134 -30 -46 -43 -59 -52 -50 -8 8 -11 5 -11 -15 0 -18 -13 -36 -46 -63 -25 -20 -69 -72 -99 -114 -68 -97 -175 -225 -212 -254 l-28 -22 24 40 c13 22 32 54 42 70 24 42 102 212 91 200 -5 -5 -34 -41 -64 -80 -30 -38 -63 -76 -72 -84 -10 -8 -26 -32 -37 -54 -17 -32 -23 -36 -35 -27 -11 10 -14 9 -14 -2 0 -16 -40 -56 -84 -84 l-28 -18 21 42 c11 23 21 45 21 49 0 4 -51 -42 -112 -102 -87 -85 -152 -136 -278 -220 -162 -108 -301 -208 -296 -212 5 -6 348 157 446 212 57 31 154 89 214 129 116 75 212 135 332 204 76 44 125 95 233 242 109 147 193 301 215 393 10 44 -9 32 -72 -46z"
       id="path25"
       style="fill:#ffffff" />
    <path
       d="M2926 2340 c-32 -38 -84 -86 -115 -106 -31 -21 -58 -39 -60 -40 -2 -2 13 -23 33 -47 20 -24 36 -51 36 -59 0 -32 -35 -58 -89 -68 -54 -10 -190 -81 -284 -148 -26 -19 -82 -45 -123 -58 -61 -20 -106 -47 -252 -150 -264 -189 -261 -192 14 -11 107 70 177 110 210 118 27 7 69 22 94 34 70 35 94 41 87 21 -10 -26 2 -44 54 -76 27 -16 49 -33 49 -37 0 -3 -14 -36 -31 -72 -29 -63 -34 -68 -118 -118 -49 -29 -140 -90 -203 -137 -115 -86 -134 -96 -306 -167 -83 -34 -277 -147 -268 -156 4 -5 266 62 346 89 35 11 176 79 314 150 137 71 252 125 256 121 15 -17 51 -126 43 -133 -4 -4 -60 -25 -123 -46 -78 -26 -107 -40 -90 -42 66 -8 206 -49 313 -89 65 -25 120 -43 122 -41 3 2 -29 56 -70 119 -41 63 -75 119 -75 125 0 14 121 -34 359 -141 95 -42 174 -75 177 -72 2 2 -35 27 -83 55 -49 28 -151 94 -228 148 -159 111 -254 164 -293 164 -41 0 -54 13 -50 49 l3 31 115 -58 c63 -31 180 -98 260 -148 167 -105 230 -139 230 -124 0 17 -48 89 -120 180 -58 73 -217 356 -207 367 4 3 123 -143 161 -197 l18 -25 -5 25 c-6 24 -5 24 21 -7 247 -289 444 -498 524 -554 32 -23 32 -22 -13 36 -69 90 -123 175 -116 182 4 3 23 -7 43 -23 133 -106 247 -188 304 -218 66 -35 190 -88 190 -81 0 2 -89 71 -197 153 -520 394 -726 600 -839 838 -31 63 -54 117 -52 119 2 2 33 -48 68 -112 62 -111 123 -189 268 -343 l62 -65 -14 41 c-22 64 -148 317 -221 444 -101 174 -137 240 -132 240 2 0 31 -42 63 -92 176 -280 236 -357 513 -657 53 -57 168 -187 256 -289 98 -115 175 -195 200 -209 56 -32 115 -49 310 -87 284 -57 282 -57 111 31 -128 67 -156 86 -195 133 -63 75 -98 109 -230 225 -119 105 -321 317 -396 417 -25 33 -49 75 -54 94 -5 19 -34 62 -64 97 -30 34 -76 95 -100 135 -42 69 -207 238 -207 214 0 -6 25 -48 56 -94 31 -46 84 -139 119 -208 46 -90 80 -143 124 -190 33 -35 58 -66 56 -68 -2 -3 -31 17 -65 44 -50 39 -67 61 -100 128 -22 45 -71 140 -110 211 -39 72 -80 153 -91 180 -18 49 -103 165 -124 172 -6 2 -37 -28 -69 -67z m186 -215 c62 -124 80 -165 74 -165 -16 0 -160 273 -171 325 l-7 30 22 -35 c13 -19 50 -89 82 -155z m-278 -252 c8 -24 13 -43 11 -43 -8 0 -75 138 -75 152 1 20 48 -61 64 -109z m-156 -10 c21 -42 36 -93 27 -93 -8 0 -55 101 -55 118 0 21 9 13 28 -25z m-142 -351 c-7 -21 -126 -108 -126 -93 0 11 122 122 128 116 2 -2 1 -12 -2 -23z"
       id="path26"
       style="fill:#ffffff" />
    <path
       d="M1885 2099 c-22 -17 -96 -59 -165 -94 -70 -36 -137 -77 -150 -91 l-25 -28 32 22 c37 26 112 61 130 62 7 0 -22 -41 -65 -92 -175 -207 -376 -435 -410 -466 -86 -77 -177 -146 -245 -184 -40 -23 -88 -52 -107 -65 l-35 -25 36 6 c20 4 83 24 139 45 112 42 127 53 384 282 213 188 266 251 337 396 48 98 74 139 126 194 36 38 64 69 62 69 -2 0 -22 -14 -44 -31z"
       id="path27"
       style="fill:#ffffff" />
    <path
       d="M2190 1988 c-100 -79 -264 -205 -363 -280 -266 -203 -263 -209 8 -17 199 141 324 241 540 431 5 4 6 8 3 8 -4 0 -88 -64 -188 -142z"
       id="path28"
       style="fill:#ffffff" />
    <path
       d="M4620 2013 c0 -6 32 -40 72 -74 39 -35 66 -55 60 -44 -17 31 -132 134 -132 118z"
       id="path29"
       style="fill:#ffffff" />
    <path
       d="M864 1895 c-56 -58 -130 -140 -164 -183 -50 -62 -32 -47 90 78 84 85 161 167 172 183 40 56 0 24 -98 -78z"
       id="path30"
       style="fill:#ffffff" />
    <path
       d="M3585 1821 c105 -124 396 -414 513 -511 51 -43 119 -92 152 -109 64 -34 186 -79 159 -58 -9 6 -45 33 -80 58 -114 82 -450 389 -465 425 -16 38 -33 52 -44 34 -7 -11 -88 52 -250 197 l-65 58 80 -94z"
       id="path31"
       style="fill:#ffffff" />
    <path
       d="M969 1652 c-69 -50 -154 -120 -129 -107 22 12 200 146 200 151 0 7 -2 5 -71 -44z"
       id="path32"
       style="fill:#ffffff" />
    <path
       d="M1294 1212 c-150 -81 -282 -155 -295 -164 l-24 -18 26 9 c37 13 220 106 304 153 139 80 278 168 265 168 -3 0 -127 -67 -276 -148z"
       id="path33"
       style="fill:#ffffff" />
    <path
       d="M870 1255 c-36 -7 -83 -22 -105 -33 -22 -11 -75 -36 -117 -56 -56 -27 -99 -57 -155 -111 l-78 -75 99 41 c129 53 292 135 391 198 86 55 82 59 -35 36z"
       id="path34"
       style="fill:#ffffff" />
    <path
       d="M2385 1099 c-27 -11 -156 -66 -285 -121 -129 -55 -269 -114 -310 -130 -95 -38 -311 -140 -307 -145 2 -2 64 13 138 32 86 23 168 38 229 42 l95 5 145 97 c80 54 193 128 253 165 131 83 139 94 42 55z"
       id="path35"
       style="fill:#ffffff" />
  </g>
</svg>
